<?xml version="1.0" encoding="utf-8"?>
<!-- Generator: Adobe Illustrator 25.1.0, SVG Export Plug-In . SVG Version: 6.00 Build 0)  -->
<svg version="1.1" id="Layer_1" xmlns="http://www.w3.org/2000/svg" xmlns:xlink="http://www.w3.org/1999/xlink" x="0px" y="0px"
	 viewBox="0 0 950 130" style="enable-background:new 0 0 950 130;" xml:space="preserve">
<style type="text/css">
	.st0{fill:#010101;stroke:#FFFFFF;stroke-width:2;stroke-miterlimit:10;}
</style>
<polyline class="st0" points="21,52.5 21,125.1 44.3,125.1 44.3,76.8 129,76.8 129,125.1 152.3,125.1 152.3,52.6 21,52.5 "/>
<path class="st0" d="M41.7,29h89.5c12.4-2.5,21.7-13.4,24.3-24.1H17.4C20,15.6,29.4,26.5,41.7,29"/>
<path class="st0" d="M331.7,125.1c11.7-5,18-13.6,20.5-23.7H247.8L247.8,5L224.4,5v120H331.7"/>
<path class="st0" d="M433.3,28.6h82.7c12.5-3.6,22.9-13.1,25.5-23.6H410.1v70.9h107.5v24.9l-84.3,0.1c-13.2,3.7-24.4,12.6-30,24.3
	l6.8-0.1h130.6V52.3H433.3L433.3,28.6"/>
<path class="st0" d="M616.8,29h89.5c12.4-2.5,21.7-13.4,24.3-24.1H592.5C595.1,15.5,604.5,26.5,616.8,29"/>
<path class="st0" d="M616.8,76.4h89.5c12.4-2.5,21.7-13.4,24.3-24.1H592.5C595.1,63,604.5,73.9,616.8,76.4"/>
<path class="st0" d="M616.8,125.1h89.5c12.4-2.5,21.7-13.4,24.3-24.1H592.5C595.1,111.7,604.5,122.7,616.8,125.1"/>
<path class="st0" d="M781.7,4.6c2.7,10.5,11.8,21.2,24.2,23.9h37.7l1.9,0.8v95H869v-95l2.1-0.8h37.7c12.6-3.2,21.5-13.4,24.1-23.9
	V4.4H781.7V4.6"/>
</svg>
