<?xml version="1.0" encoding="utf-8"?>
<!-- Generator: Adobe Illustrator 25.1.0, SVG Export Plug-In . SVG Version: 6.00 Build 0)  -->
<svg version="1.1" id="Layer_1" xmlns="http://www.w3.org/2000/svg" xmlns:xlink="http://www.w3.org/1999/xlink" x="0px" y="0px"
	 viewBox="0 0 1200 800" style="enable-background:new 0 0 1200 800;" xml:space="preserve">
<polyline points="145.8,359.1 145.8,431.7 169.1,431.7 169.1,383.3 253.8,383.3 253.8,431.7 277.1,431.7 277.1,359.2 145.8,359.1 
	"/>
<path d="M166.5,335.6H256c12.4-2.5,21.7-13.4,24.3-24.1H142.2C144.8,322.2,154.2,333.1,166.5,335.6"/>
<path d="M456.5,431.6c11.7-5,18-13.6,20.5-23.7H372.6l0.1-96.5l-23.4,0.1v120H456.5"/>
<path d="M558.1,335.1h82.7c12.5-3.6,22.9-13.1,25.5-23.6H534.9v70.9h107.5v24.9l-84.3,0.1c-13.2,3.7-24.4,12.6-30,24.3l6.8-0.1
	h130.6v-72.7H558.1L558.1,335.1"/>
<path d="M741.6,335.5h89.5c12.4-2.5,21.7-13.4,24.3-24.1H717.3C719.9,322.1,729.3,333,741.6,335.5"/>
<path d="M741.6,383h89.5c12.4-2.5,21.7-13.4,24.3-24.1H717.3C719.9,369.5,729.3,380.5,741.6,383"/>
<path d="M741.6,431.7h89.5c12.4-2.5,21.7-13.4,24.3-24.1H717.3C719.9,418.3,729.3,429.2,741.6,431.7"/>
<path d="M906.5,311.2c2.7,10.5,11.8,21.2,24.2,23.9h37.7l1.9,0.8v95h23.5v-95l2.1-0.8h37.7c12.6-3.2,21.5-13.4,24.1-23.9V311H906.5
	V311.2"/>
</svg>
